<svg width="61" height="61" viewBox="0 0 61 61" fill="none" xmlns="http://www.w3.org/2000/svg">
    <g>
        <path d="M7.625 48.2917H53.375" stroke="#E63B7A" stroke-width="2" stroke-linecap="round" stroke-linejoin="round"/>
        <path d="M13 17.5417C13 16.8676 13.2678 16.2211 13.7444 15.7444C14.2211 15.2678 14.8676 15 15.5417 15H46.0417C46.7158 15 47.3622 15.2678 47.8389 15.7444C48.3156 16.2211 48.5833 16.8676 48.5833 17.5417V37.875C48.5833 38.5491 48.3156 39.1956 47.8389 39.6722C47.3622 40.1489 46.7158 40.4167 46.0417 40.4167H15.5417C14.8676 40.4167 14.2211 40.1489 13.7444 39.6722C13.2678 39.1956 13 38.5491 13 37.875V17.5417Z" stroke="#E63B7A" stroke-width="2" stroke-linecap="round" stroke-linejoin="round"/>
        <path d="M20.766 31.238C20.2247 31.238 19.772 31.1447 19.408 30.958C19.044 30.762 18.7687 30.4773 18.582 30.104C18.4047 29.7213 18.316 29.2453 18.316 28.676V24.154C18.316 24.0327 18.3627 23.944 18.456 23.888C18.5587 23.8227 18.708 23.79 18.904 23.79C19.1093 23.79 19.2633 23.8227 19.366 23.888C19.4687 23.944 19.52 24.0327 19.52 24.154V28.676C19.52 29.0027 19.5713 29.278 19.674 29.502C19.7767 29.726 19.9307 29.894 20.136 30.006C20.3507 30.118 20.612 30.174 20.92 30.174C21.1813 30.174 21.424 30.132 21.648 30.048C21.872 29.964 22.0727 29.8473 22.25 29.698C22.4367 29.5487 22.6 29.3713 22.74 29.166C22.88 28.9607 22.9967 28.7413 23.09 28.508V24.154C23.09 24.0327 23.1367 23.944 23.23 23.888C23.3327 23.8227 23.4867 23.79 23.692 23.79C23.888 23.79 24.0373 23.8227 24.14 23.888C24.2427 23.944 24.294 24.0327 24.294 24.154V34.15C24.294 34.8593 24.1633 35.4567 23.902 35.942C23.65 36.4273 23.2907 36.7913 22.824 37.034C22.3667 37.2767 21.8253 37.398 21.2 37.398C20.78 37.398 20.402 37.3373 20.066 37.216C19.73 37.104 19.436 36.95 19.184 36.754C18.9413 36.558 18.7407 36.3527 18.582 36.138C18.4887 36.0073 18.4513 35.8627 18.47 35.704C18.498 35.5547 18.61 35.4287 18.806 35.326C18.974 35.242 19.1047 35.2047 19.198 35.214C19.3007 35.2327 19.408 35.3073 19.52 35.438C19.8 35.7367 20.0753 35.956 20.346 36.096C20.626 36.236 20.9527 36.306 21.326 36.306C21.69 36.306 22.0027 36.2313 22.264 36.082C22.5253 35.9327 22.726 35.6947 22.866 35.368C23.0153 35.0507 23.09 34.6353 23.09 34.122V29.936C22.9687 30.132 22.824 30.314 22.656 30.482C22.4973 30.6407 22.3153 30.776 22.11 30.888C21.914 31 21.704 31.084 21.48 31.14C21.256 31.2053 21.018 31.238 20.766 31.238ZM29.2976 31.238C28.7656 31.238 28.2942 31.112 27.8836 30.86C27.4729 30.5987 27.1509 30.2067 26.9176 29.684C26.6842 29.1613 26.5676 28.5033 26.5676 27.71C26.5676 27.2247 26.6142 26.7767 26.7076 26.366C26.8009 25.9553 26.9316 25.5867 27.0996 25.26C27.2769 24.9333 27.4916 24.658 27.7436 24.434C28.0049 24.21 28.2989 24.0373 28.6256 23.916C28.9522 23.7947 29.3116 23.734 29.7036 23.734C30.0862 23.734 30.4782 23.8087 30.8796 23.958C31.2809 24.1073 31.6402 24.3033 31.9576 24.546V25.596C31.5842 25.2973 31.2249 25.0967 30.8796 24.994C30.5436 24.8913 30.1936 24.84 29.8296 24.84C29.5869 24.84 29.3582 24.8773 29.1436 24.952C28.9382 25.0267 28.7516 25.1387 28.5836 25.288C28.4249 25.4373 28.2849 25.624 28.1636 25.848C28.0516 26.072 27.9629 26.3333 27.8976 26.632C27.8416 26.9307 27.8136 27.2713 27.8136 27.654C27.8136 28.1673 27.8742 28.6107 27.9956 28.984C28.1169 29.348 28.2989 29.628 28.5416 29.824C28.7936 30.02 29.1062 30.118 29.4796 30.118C29.8156 30.118 30.1282 30.0433 30.4176 29.894C30.7162 29.7353 30.9869 29.488 31.2296 29.152C31.4816 28.8067 31.6962 28.354 31.8736 27.794L32.0976 28.648C31.8829 29.3667 31.6169 29.9127 31.2996 30.286C30.9916 30.6593 30.6602 30.9113 30.3056 31.042C29.9602 31.1727 29.6242 31.238 29.2976 31.238ZM33.3576 31.238C33.0402 31.238 32.7649 31.1913 32.5316 31.098C32.2982 31.014 32.1069 30.8833 31.9576 30.706C31.8082 30.5193 31.6962 30.2907 31.6216 30.02C31.5562 29.74 31.5236 29.4133 31.5236 29.04V24.196C31.5236 24.056 31.5749 23.9533 31.6776 23.888C31.7802 23.8227 31.9342 23.79 32.1396 23.79C32.3356 23.79 32.4802 23.8227 32.5736 23.888C32.6762 23.944 32.7276 24.0373 32.7276 24.168V29.04C32.7276 29.46 32.7882 29.7587 32.9096 29.936C33.0402 30.104 33.2782 30.188 33.6236 30.188C33.7076 30.188 33.7682 30.244 33.8056 30.356C33.8522 30.4587 33.8662 30.58 33.8476 30.72C33.8382 30.8507 33.7916 30.9673 33.7076 31.07C33.6329 31.182 33.5162 31.238 33.3576 31.238ZM33.3543 31.238C33.2703 31.238 33.2096 31.182 33.1723 31.07C33.135 30.9673 33.1256 30.8507 33.1443 30.72C33.163 30.58 33.2096 30.4587 33.2843 30.356C33.359 30.244 33.4663 30.188 33.6063 30.188C33.8303 30.188 34.031 30.1273 34.2083 30.006C34.3763 29.8847 34.5256 29.7027 34.6563 29.46C34.787 29.2173 34.899 28.9187 34.9923 28.564C35.0856 28.2093 35.1603 27.794 35.2163 27.318C35.3003 26.6273 35.4076 26.058 35.5383 25.61C35.6783 25.1527 35.8416 24.7933 36.0283 24.532C36.215 24.2613 36.425 24.07 36.6583 23.958C36.8916 23.846 37.1483 23.79 37.4283 23.79C37.5123 23.79 37.573 23.846 37.6103 23.958C37.657 24.0607 37.6756 24.182 37.6663 24.322C37.6663 24.4527 37.643 24.574 37.5963 24.686C37.5496 24.7887 37.4843 24.84 37.4003 24.84C37.2883 24.84 37.1763 24.8727 37.0643 24.938C36.9616 24.994 36.8636 25.106 36.7703 25.274C36.677 25.4327 36.5883 25.666 36.5043 25.974C36.4296 26.2727 36.3596 26.6647 36.2943 27.15C36.1916 27.99 36.0516 28.6807 35.8743 29.222C35.7063 29.754 35.501 30.1693 35.2583 30.468C35.025 30.7573 34.7496 30.958 34.4323 31.07C34.115 31.182 33.7556 31.238 33.3543 31.238ZM37.3583 31.21C37.1623 31.21 37.013 31.1773 36.9103 31.112C36.817 31.056 36.7703 30.9673 36.7703 30.846V25.834C36.7703 25.442 36.7143 25.1807 36.6023 25.05C36.4903 24.91 36.2896 24.84 36.0003 24.84C35.8603 24.84 35.7576 24.7887 35.6923 24.686C35.627 24.574 35.5943 24.4527 35.5943 24.322C35.5943 24.182 35.6316 24.0607 35.7063 23.958C35.781 23.846 35.8883 23.79 36.0283 23.79C36.2803 23.79 36.5043 23.818 36.7003 23.874C36.9056 23.9207 37.083 24 37.2323 24.112C37.391 24.2147 37.5216 24.35 37.6243 24.518C37.727 24.6767 37.8063 24.868 37.8623 25.092L37.8903 25.204C38.021 24.98 38.175 24.7793 38.3523 24.602C38.5296 24.4247 38.721 24.2707 38.9263 24.14C39.141 24.0093 39.365 23.9113 39.5983 23.846C39.841 23.7713 40.093 23.734 40.3543 23.734C40.8396 23.734 41.2643 23.8227 41.6283 24C42.0016 24.1773 42.291 24.4573 42.4963 24.84C42.711 25.2133 42.8183 25.708 42.8183 26.324V29.656C42.8183 29.7773 42.837 29.88 42.8743 29.964C42.9116 30.0387 42.963 30.0947 43.0283 30.132C43.103 30.1693 43.1823 30.188 43.2663 30.188C43.3503 30.188 43.425 30.174 43.4903 30.146C43.565 30.118 43.635 30.0807 43.7003 30.034C43.7656 29.978 43.831 29.9267 43.8963 29.88C43.971 29.824 44.055 29.8147 44.1483 29.852C44.2416 29.8893 44.321 29.9453 44.3863 30.02C44.461 30.1133 44.4983 30.2067 44.4983 30.3C44.5076 30.3933 44.4843 30.482 44.4283 30.566C44.3256 30.706 44.195 30.8273 44.0363 30.93C43.887 31.0327 43.7236 31.1073 43.5463 31.154C43.369 31.21 43.187 31.238 43.0003 31.238C42.7576 31.238 42.5476 31.2053 42.3703 31.14C42.193 31.0747 42.0483 30.9813 41.9363 30.86C41.8243 30.7387 41.7403 30.5893 41.6843 30.412C41.6376 30.2253 41.6143 30.02 41.6143 29.796V26.436C41.6143 26.1093 41.563 25.8293 41.4603 25.596C41.367 25.3533 41.2176 25.1713 41.0123 25.05C40.807 24.9193 40.5316 24.854 40.1863 24.854C39.9903 24.854 39.785 24.882 39.5703 24.938C39.365 24.994 39.1643 25.0873 38.9683 25.218C38.7816 25.3393 38.5996 25.5027 38.4223 25.708C38.2543 25.9133 38.105 26.1653 37.9743 26.464V30.846C37.9743 30.9673 37.923 31.056 37.8203 31.112C37.7176 31.1773 37.5636 31.21 37.3583 31.21Z" fill="#E63B7A"/>
    </g>
    <defs>
        <clipPath id="clip0_718_23">
            <rect width="61" height="61" fill="white"/>
        </clipPath>
    </defs>
</svg>